<svg id="Layer_1" data-name="Layer 1" xmlns="http://www.w3.org/2000/svg" viewBox="0 0 138.02 2590.45"><defs><style>.cls-1{fill:#242329;}.cls-2{font-size:36.33px;fill:#fff;font-family:ECAMFontRegular;}.cls-3{stroke:#fff;stroke-miterlimit:10;stroke-width:4px;}.cls-4{fill:#c1272d;}</style></defs><polygon class="cls-1" points="136.85 2590.45 0 2590.45 0 0 113.87 0 136.85 0 136.85 2590.45"/><text class="cls-2" transform="translate(51.6 1937.59) scale(0.89 1)">80</text><text class="cls-2" transform="translate(51.11 2059.97) scale(0.89 1)">60</text><text class="cls-2" transform="translate(51.11 2182.44) scale(0.89 1)">40</text><path class="cls-3" d="M105.06,2230.44h0Z"/><path class="cls-3" d="M112,2168h0Z"/><path class="cls-3" d="M112,2047.16h0Z"/><path class="cls-3" d="M114,1985.13h0Z"/><path class="cls-3" d="M114,2107.58h0Z"/><path class="cls-3" d="M112,1923.1h0Z"/><text class="cls-2" transform="translate(43.6 1583.73) scale(0.89 1)">140</text><text class="cls-2" transform="translate(43.6 1706.11) scale(0.89 1)">120</text><text class="cls-2" transform="translate(43.6 1828.58) scale(0.89 1)">100</text><path class="cls-3" d="M112.49,1814.13h0Z"/><path class="cls-3" d="M112.49,1693.3h0Z"/><path class="cls-3" d="M114.53,1631.27h0Z"/><path class="cls-3" d="M114.53,1753.72h0Z"/><path class="cls-3" d="M114.53,1865.81h0Z"/><path class="cls-3" d="M112.49,1569.24h0Z"/><text class="cls-2" transform="translate(44.6 1233.17) scale(0.89 1)">200</text><text class="cls-2" transform="translate(43.6 1355.55) scale(0.89 1)">180</text><text class="cls-2" transform="translate(43.6 1478.02) scale(0.89 1)">160</text><path class="cls-3" d="M113.17,1463.57h0Z"/><path class="cls-3" d="M113.17,1342.74h0Z"/><path class="cls-3" d="M115.22,1280.71h0Z"/><path class="cls-3" d="M115.22,1403.16h0Z"/><path class="cls-3" d="M115.22,1515.25h0Z"/><path class="cls-3" d="M113.17,1218.68h0Z"/><text class="cls-2" transform="translate(44.6 883.24) scale(0.89 1)">260</text><text class="cls-2" transform="translate(43.6 1005.62) scale(0.89 1)">240</text><text class="cls-2" transform="translate(43.6 1128.09) scale(0.89 1)">220</text><path class="cls-3" d="M113.17,1113.64h0Z"/><path class="cls-3" d="M113.17,992.81h0Z"/><path class="cls-3" d="M115.22,930.78h0Z"/><path class="cls-3" d="M115.22,1053.22h0Z"/><path class="cls-3" d="M115.22,1165.31h0Z"/><path class="cls-3" d="M113.17,868.74h0Z"/><text class="cls-2" transform="translate(43.6 538.23) scale(0.89 1)">320</text><text class="cls-2" transform="translate(44.6 660.61) scale(0.89 1)">300</text><text class="cls-2" transform="translate(44.6 783.08) scale(0.89 1)">280</text><path class="cls-3" d="M113.17,768.63h0Z"/><path class="cls-3" d="M113.17,647.8h0Z"/><path class="cls-3" d="M115.22,585.77h0Z"/><path class="cls-3" d="M115.22,708.22h0Z"/><path class="cls-3" d="M115.22,820.3h0Z"/><path class="cls-3" d="M113.17,523.74h0Z"/><text class="cls-2" transform="translate(44.6 193.22) scale(0.89 1)">380</text><text class="cls-2" transform="translate(44.6 315.6) scale(0.89 1)">360</text><text class="cls-2" transform="translate(43.6 438.07) scale(0.89 1)">340</text><path class="cls-3" d="M113.17,423.62h0Z"/><path class="cls-3" d="M113.17,302.79h0Z"/><path class="cls-3" d="M115.22,240.76h0Z"/><path class="cls-3" d="M115.22,363.21h0Z"/><path class="cls-3" d="M115.22,475.3h0Z"/><path class="cls-3" d="M113.17,178.73h0Z"/><text class="cls-2" transform="translate(44.6 92.06) scale(0.89 1)">400</text><path class="cls-3" d="M113.17,78.62h0Z"/><path class="cls-3" d="M115.22,130.29h0Z"/><rect class="cls-4" x="123.47" y="2276.13" width="13.38" height="314.32"/><rect class="cls-4" x="124.64" width="13.38" height="55.35"/></svg>