<svg id="Layer_1" data-name="Layer 1" xmlns="http://www.w3.org/2000/svg" viewBox="0 0 117.25 665"><defs><style>.cls-1{fill:#242329;}.cls-2{stroke:#fff;stroke-miterlimit:10;stroke-width:2px;}.cls-3{font-size:37.88px;fill:#fff;font-family:ECAMFontRegular;}</style></defs><polygon class="cls-1" points="3.12 0 58.85 0 117.25 154.62 114.13 515.8 57.06 665 0 665 0 454.72 35.1 430.65 35.1 237.17 3.05 215.77 3.12 0"/><path class="cls-2" d="M2234.4,1468.73h0Z" transform="translate(-2199.3 -829.2)"/><path class="cls-2" d="M2233.81,1434.52h0Z" transform="translate(-2199.3 -829.2)"/><path class="cls-2" d="M2233.81,1399.83h0Z" transform="translate(-2199.3 -829.2)"/><path class="cls-2" d="M2234.4,1351.68h0Z" transform="translate(-2199.3 -829.2)"/><path class="cls-2" d="M2233.81,1300.86h0Z" transform="translate(-2199.3 -829.2)"/><path class="cls-2" d="M2237.16,1231.76h0Z" transform="translate(-2199.3 -829.2)"/><text class="cls-3" transform="translate(16.34 39) scale(0.81 1)">6</text><text class="cls-3" transform="translate(16.34 108.64) scale(0.81 1)">2</text><text class="cls-3" transform="translate(14.58 209.06) scale(0.81 1)">1</text><text class="cls-3" transform="translate(13.75 486.19) scale(0.81 1)">1</text><text class="cls-3" transform="translate(12.98 583.93) scale(0.81 1)">2</text><text class="cls-3" transform="translate(12.09 655.21) scale(0.81 1)">6</text><path class="cls-2" d="M2237.38,1092.61h0Z" transform="translate(-2199.3 -829.2)"/><path class="cls-2" d="M2236.8,1058.4h0Z" transform="translate(-2199.3 -829.2)"/><path class="cls-2" d="M2236.8,1023.71h0Z" transform="translate(-2199.3 -829.2)"/><path class="cls-2" d="M2237.38,975.56h0Z" transform="translate(-2199.3 -829.2)"/><path class="cls-2" d="M2236.8,924.74h0Z" transform="translate(-2199.3 -829.2)"/><path class="cls-2" d="M2240.14,855.64h0Z" transform="translate(-2199.3 -829.2)"/></svg>